<svg width="23" height="23" viewBox="0 0 33 32" fill="none" xmlns="http://www.w3.org/2000/svg">
<path d="M29.2923 21.8218L24.7006 21.3052C23.5978 21.1805 22.5132 21.5546 21.7358 22.3206L18.4096 25.5983C13.2936 23.0331 9.09964 18.9182 6.49648 13.8591L9.84082 10.5635C10.6182 9.79755 10.9978 8.72873 10.8712 7.64209L10.347 3.15303C10.1301 1.35384 8.59347 0 6.74956 0H3.62215C1.57939 0 -0.119902 1.67449 0.00664074 3.68744C0.96475 18.9004 13.3117 31.0493 28.7319 31.9935C30.7746 32.1182 32.4739 30.4437 32.4739 28.4307V25.3489C32.492 23.5497 31.1181 22.0356 29.2923 21.8218Z" fill="#00317B"/>
</svg>
