<svg width="20" height="20" viewBox="0 0 31 31" fill="none" xmlns="http://www.w3.org/2000/svg">
<path d="M1.94313 0.000841056C1.55839 0.000942124 1.18243 0.115811 0.863301 0.330762C0.544173 0.545713 0.296383 0.85098 0.15161 1.20753C0.00683622 1.56409 -0.0283417 1.95573 0.0505731 2.33238C0.129488 2.70904 0.31891 3.0536 0.594621 3.32201L12.7652 15.4958L0.594621 27.6697C0.409009 27.8479 0.26082 28.0615 0.158734 28.2977C0.0566486 28.534 0.0027179 28.7882 0.000100106 29.0456C-0.00251769 29.303 0.0462305 29.5583 0.14349 29.7966C0.240749 30.0348 0.384564 30.2513 0.566512 30.4333C0.74846 30.6153 0.964883 30.7592 1.20311 30.8565C1.44133 30.9537 1.69657 31.0025 1.95387 30.9999C2.21117 30.9973 2.46536 30.9433 2.70156 30.8412C2.93775 30.7391 3.15121 30.5909 3.32941 30.4052L15.5 18.2314L27.6706 30.4052C27.8488 30.5909 28.0622 30.7391 28.2984 30.8412C28.5346 30.9433 28.7888 30.9973 29.0461 30.9999C29.3034 31.0025 29.5587 30.9538 29.7969 30.8565C30.0351 30.7592 30.2515 30.6153 30.4335 30.4333C30.6154 30.2513 30.7593 30.0349 30.8565 29.7966C30.9538 29.5583 31.0025 29.303 30.9999 29.0456C30.9973 28.7882 30.9433 28.534 30.8413 28.2977C30.7392 28.0615 30.591 27.8479 30.4054 27.6697L18.2348 15.4958L30.4054 3.32201C30.6848 3.05028 30.8757 2.70044 30.953 2.31834C31.0303 1.93623 30.9904 1.53969 30.8385 1.18067C30.6866 0.821653 30.4298 0.516909 30.1017 0.306378C29.7737 0.0958469 29.3898 -0.0106507 29.0002 0.000841056C28.4977 0.0158164 28.0209 0.225864 27.6706 0.586485L15.5 12.7603L3.32941 0.586485C3.14918 0.401169 2.93365 0.253866 2.69555 0.153277C2.45744 0.052689 2.2016 0.000856127 1.94313 0.000841056Z" fill="#919191"/>
</svg>
