<svg width="39" height="35" viewBox="0 0 39 35" fill="none" xmlns="http://www.w3.org/2000/svg">
<path d="M7.09091 35C6.65671 34.9999 6.23763 34.8398 5.91316 34.5498C5.58869 34.2599 5.38139 33.8604 5.33059 33.4271L5.31818 33.2187V17.1869H0L18.307 0.463868C18.6044 0.191844 18.9851 0.029558 19.3865 0.00366186C19.7879 -0.0222343 20.1861 0.089799 20.5158 0.321363L20.693 0.463868L39 17.1869H33.6818V33.2187C33.6818 33.655 33.5223 34.0761 33.2338 34.4021C32.9453 34.7282 32.5477 34.9365 32.1165 34.9875L31.9091 35H7.09091ZM19.5 4.18682L8.86364 13.9021V31.4374H16.5874L19.0568 28.7654L12.4091 22.5308L21.2727 17.1869L16.8409 13.6242L22.1591 8.28028L21.2727 13.6242L25.7045 17.1869L18.6136 22.5308L24.8182 27.8747L22.6023 31.4374H30.1364V13.9039L19.5 4.18682Z" fill="currentColor"/>
</svg>
