<svg width="32" height="31" viewBox="0 0 32 31" fill="none" xmlns="http://www.w3.org/2000/svg">
<path d="M29.9195 13.9134C28.6964 11.9395 21.7589 0.549473 21.7589 0.549473C21.67 0.401855 21.5397 0.278809 21.3816 0.193128C21.2234 0.107446 21.0432 0.0622559 20.8596 0.0622559C20.676 0.0622559 20.4958 0.107446 20.3376 0.193128C20.1795 0.278809 20.0492 0.401855 19.9603 0.549473L13.7936 10.5984L10.7103 5.6117C10.6214 5.46408 10.4911 5.34103 10.333 5.25535C10.1748 5.16967 9.99458 5.12448 9.81099 5.12448C9.6274 5.12448 9.44716 5.16967 9.28901 5.25535C9.13086 5.34103 9.00057 5.46408 8.91169 5.6117C8.91169 5.6117 3.30002 14.9617 2.2928 16.5861C1.30687 18.0306 0.79976 19.7075 0.833354 21.4123C0.833354 26.2384 4.82113 30.5261 9.74419 30.6111H20.8545C26.8156 30.6111 31.6667 25.53 31.6667 19.6934C31.7076 17.6516 31.1005 15.6432 29.9195 13.9134ZM19.8267 28.7222H12.6939C11.4592 28.6885 10.2859 28.2195 9.41719 27.4125C8.5485 26.6054 8.05101 25.5222 8.0278 24.3872C8.01962 23.5936 8.28991 22.8187 8.79863 22.1772L12.2417 17.2567C12.2883 17.1904 12.3522 17.1359 12.4276 17.0982C12.503 17.0605 12.5875 17.0407 12.6734 17.0407C12.7592 17.0407 12.8437 17.0605 12.9191 17.0982C12.9945 17.1359 13.0584 17.1904 13.105 17.2567L14.9345 19.8728V19.7972C15.582 18.7489 19.282 12.7328 19.282 12.7328C19.3268 12.6601 19.3918 12.5997 19.4703 12.5576C19.5489 12.5156 19.6381 12.4934 19.729 12.4934C19.82 12.4934 19.9092 12.5156 19.9878 12.5576C20.0663 12.5997 20.1313 12.6601 20.1761 12.7328C20.1761 12.7328 23.8761 18.7584 24.5236 19.7972C25.1646 20.6984 25.5041 21.7524 25.5 22.8289C25.5 28.7222 20.4639 28.7222 19.8267 28.7222Z" fill="currentColor"/>
</svg>
