<svg width="28" height="32" viewBox="0 0 28 32" fill="none" xmlns="http://www.w3.org/2000/svg">
<path fill-rule="evenodd" clip-rule="evenodd" d="M11.4362 0L13.3778 1.16196C16.1246 2.80583 17.8442 5.14436 18.7437 7.53524C19.0859 6.76467 19.4924 6.02019 19.8701 5.26667L21.3823 6.77527C24.777 10.1614 28 15.2364 28 20.1643C28 26.7739 23.9152 30.9634 17.3798 31.6878L15.2372 31.9253L15.7047 29.826C16.0705 28.1837 16.1351 27.1097 16.0607 26.3583C15.9669 25.4118 15.516 24.67 14.9562 23.9316C14.4189 23.223 13.8879 22.5147 13.4627 21.7314C11.712 23.1115 11.0338 24.3575 10.8174 25.3826C10.54 26.697 10.9329 28.0388 11.6513 29.4718L12.9184 32L10.1022 31.6878C6.13136 31.2477 2.21899 28.6019 0.678013 24.7397C-0.933414 20.7007 0.206072 15.812 5.40923 11.3137C8.86277 8.32807 10.6917 4.45786 11.4362 0ZM13.4897 5.07578C12.315 8.3653 10.0604 11.3624 7.42841 13.6378C2.94063 17.5175 2.53861 21.0862 3.54255 23.6024C4.29081 25.4779 5.90506 27.0207 7.81798 27.8957C7.61503 26.9142 7.56681 25.8562 7.80049 24.749C8.30218 22.372 10.0164 20.1445 13.3093 18.0915L14.9696 17.0564L15.5888 18.9092C16.1314 20.5332 17.2575 21.6813 18.1368 23.1066C19.1049 24.6758 19.29 26.4741 19.0946 28.2718C23.1304 27.2626 24.9169 24.2076 24.9169 20.1643C24.9169 16.748 22.8511 13.3956 20.8 10.7752C19.9569 12.6633 18.1752 13.3289 16.4385 14.1949V11.7069C16.4385 9.60183 15.5803 7.03582 13.4897 5.07578Z" fill="#FF7451"/>
</svg>
