<svg width="46" height="34" viewBox="0 0 46 34" fill="currentColor" xmlns="http://www.w3.org/2000/svg">
<path d="M9.17276 7.75C11.7921 7.75 14.2784 6.75651 16.0866 5.06288C17.8951 6.75673 20.3812 7.75 23.0005 7.75C25.6203 7.75 28.1062 6.75695 29.9135 5.06353C31.7217 6.75695 34.2075 7.75 36.8273 7.75C40.2937 7.75 43.5261 6.01046 45.2635 3.21055C45.7497 2.42668 45.4622 1.42379 44.621 0.970657C43.7799 0.517958 42.7038 0.785512 42.2175 1.56937C41.1073 3.35919 39.0418 4.47115 36.8276 4.47115C34.6129 4.47115 32.5469 3.35919 31.4367 1.56937C31.1221 1.06268 30.5416 0.750319 29.9135 0.750537C29.2851 0.750537 28.7048 1.0629 28.3905 1.56981C27.281 3.35962 25.2159 4.47115 23.001 4.47115C20.787 4.47115 18.721 3.35897 17.6092 1.56872C17.2946 1.06225 16.7143 0.750319 16.0866 0.750319H16.0862C15.4583 0.750319 14.878 1.06246 14.5636 1.56916C13.4535 3.35897 11.3879 4.47094 9.17347 4.47094C6.95876 4.47094 4.89276 3.35897 3.78259 1.56916C3.29634 0.785511 2.22018 0.517084 1.37905 0.970439C0.537923 1.42358 0.250118 2.42646 0.736595 3.21033C2.47304 6.01046 5.70574 7.75 9.17276 7.75Z" fill="currentColor"/>
<path d="M44.6208 13.9707C43.7796 13.518 42.7035 13.7853 42.2173 14.5694C41.1071 16.3592 39.0416 17.4712 36.8273 17.4712C34.6126 17.4712 32.5467 16.3592 31.4365 14.5694C31.122 14.0627 30.5414 13.7504 29.9133 13.7506C29.2849 13.7506 28.7046 14.0629 28.3903 14.5699C27.2808 16.3597 25.2158 17.4712 23.0008 17.4712C20.7869 17.4712 18.7209 16.359 17.6091 14.5688C17.2945 14.0623 16.7142 13.7504 16.0865 13.7504H16.0861C15.4582 13.7504 14.8779 14.0625 14.5636 14.5692C13.4534 16.359 11.3879 17.471 9.17341 17.471C6.95872 17.471 4.89273 16.359 3.78257 14.5692C3.29633 13.7853 2.22017 13.5171 1.37905 13.9705C0.537923 14.4236 0.25012 15.4265 0.736593 16.2104C2.47373 19.0105 5.70641 20.75 9.17365 20.75C11.793 20.75 14.2793 19.7565 16.0875 18.0629C17.8959 19.7567 20.382 20.75 23.0013 20.75C25.6211 20.75 28.1069 19.757 29.9142 18.0636C31.7224 19.757 34.2083 20.75 36.828 20.75C40.2943 20.75 43.5268 19.0107 45.2642 16.2104C45.7495 15.4267 45.4619 14.4238 44.6208 13.9707Z" fill="currentColor"/>
<path d="M44.6208 26.9706C43.7796 26.5177 42.7035 26.7852 42.2173 27.5693C41.1071 29.3592 39.0416 30.4711 36.8273 30.4711C34.6126 30.4711 32.5467 29.3592 31.4365 27.5693C31.122 27.0626 30.5414 26.7503 29.9133 26.7505C29.2849 26.7505 28.7046 27.0629 28.3903 27.5698C27.2808 29.3596 25.2158 30.4711 23.0008 30.4711C20.7869 30.4711 18.7209 29.3589 17.6091 27.5687C17.2945 27.0622 16.7142 26.7503 16.0865 26.7503H16.0861C15.4582 26.7503 14.8779 27.0624 14.5636 27.5691C13.4534 29.3589 11.3879 30.4709 9.17341 30.4709C6.95872 30.4709 4.89273 29.3589 3.78257 27.5691C3.29633 26.7852 2.22017 26.5173 1.37905 26.9704C0.537923 27.4235 0.25012 28.4264 0.736593 29.2103C2.47373 32.0104 5.70641 33.75 9.17365 33.75C11.793 33.75 14.2793 32.7565 16.0875 31.0629C17.8959 32.7567 20.382 33.75 23.0013 33.75C25.6211 33.75 28.1069 32.7569 29.9142 31.0635C31.7224 32.7569 34.2083 33.75 36.828 33.75C40.2943 33.75 43.5268 32.0104 45.2642 29.2103C45.7495 28.4266 45.4619 27.4237 44.6208 26.9706Z" fill="currentColor"/>
</svg>
