<svg width="31" height="31" viewBox="0 0 31 31" fill="none" xmlns="http://www.w3.org/2000/svg">
<path d="M13.95 7.75H17.05V10.85H13.95V7.75ZM15.5 23.25C16.3525 23.25 17.05 22.5525 17.05 21.7V15.5C17.05 14.6475 16.3525 13.95 15.5 13.95C14.6475 13.95 13.95 14.6475 13.95 15.5V21.7C13.95 22.5525 14.6475 23.25 15.5 23.25ZM15.5 0C6.944 0 0 6.944 0 15.5C0 24.056 6.944 31 15.5 31C24.056 31 31 24.056 31 15.5C31 6.944 24.056 0 15.5 0ZM15.5 27.9C8.6645 27.9 3.1 22.3355 3.1 15.5C3.1 8.6645 8.6645 3.1 15.5 3.1C22.3355 3.1 27.9 8.6645 27.9 15.5C27.9 22.3355 22.3355 27.9 15.5 27.9Z" fill="currentColor"/>
</svg>
