<svg width="33" height="35" viewBox="0 0 33 35" fill="currentColor" xmlns="http://www.w3.org/2000/svg">
<path d="M3.14286 35H25.1429C26.4524 35 27.3952 34.4137 27.9714 33.241C28.5476 32.0683 28.4429 30.949 27.6571 29.8829L22 22.2073L14.1429 19.0091L10.3714 13.8921C10.0833 13.4923 9.71667 13.1789 9.27143 12.9518C8.82619 12.7258 8.35476 12.6128 7.85714 12.6128H3.14286C2.27857 12.6128 1.53895 12.9257 0.924 13.5515C0.308 14.1783 0 14.9315 0 15.811V31.8018C0 32.6813 0.308 33.4345 0.924 34.0613C1.53895 34.6871 2.27857 35 3.14286 35ZM3.14286 31.8018V29.2433L6.28571 30.2827L20.4679 25.4854L25.1429 31.8018H3.14286ZM6.28571 26.9246L3.14286 25.8452V22.8469L6.28571 23.8863L12.4929 21.8075L16.2643 23.5266L6.28571 26.9246ZM27.6571 21.4078L31.1143 19.8487C31.6905 19.5821 32.1488 19.1888 32.4893 18.6685C32.8298 18.1494 33 17.57 33 16.9303V15.1713C33 14.4251 32.7706 13.7588 32.3117 13.1725C31.8539 12.5861 31.2583 12.213 30.525 12.0531L27.3821 11.3335C26.9107 11.2269 26.4461 11.2333 25.9883 11.3527C25.5294 11.4732 25.1167 11.68 24.75 11.9732L23.1786 13.2524C22.8119 13.5456 22.5238 13.9118 22.3143 14.351C22.1048 14.7913 22 15.2513 22 15.731V17.49C22 17.9697 22.1048 18.4292 22.3143 18.8684C22.5238 19.3087 22.8119 19.6754 23.1786 19.9686L24.4357 21.008C24.881 21.3811 25.3985 21.6007 25.9883 21.6668C26.577 21.734 27.1333 21.6476 27.6571 21.4078ZM6.28571 20.5283L3.14286 19.4489V15.811H7.85714L10.4107 19.1291L6.28571 20.5283ZM26.4 18.4894L25.1429 17.49V15.731L26.7143 14.4517L29.8571 15.1713V16.9303L26.4 18.4894ZM17.2464 11.9732L21.6071 10.2142C22.2095 9.9743 22.6878 9.58785 23.0419 9.05483C23.3949 8.5218 23.5714 7.92214 23.5714 7.25585V4.05768C23.5714 3.28479 23.3357 2.59825 22.8643 1.99806C22.3929 1.39893 21.7905 1.03274 21.0571 0.899486L16.9714 0.0599657C16.5524 -0.0199886 16.1464 -0.0199886 15.7536 0.0599657C15.3607 0.13992 14.981 0.299829 14.6143 0.539692L12.4143 2.05882C11.969 2.35199 11.6223 2.73844 11.374 3.21816C11.1247 3.69789 11 4.20426 11 4.73729V7.6956C11 8.22863 11.1247 8.73501 11.374 9.21473C11.6223 9.69446 11.969 10.0809 12.4143 10.3741L14.3393 11.6933C14.7845 11.9865 15.2628 12.1597 15.774 12.213C16.2842 12.2663 16.775 12.1864 17.2464 11.9732ZM16.0679 9.01485L14.1429 7.6956V4.73729L16.3821 3.21816L20.4286 4.05768V7.25585L16.0679 9.01485Z" fill="currentColor"/>
</svg>
