<svg width="34" height="34" viewBox="0 0 34 34" fill="none" xmlns="http://www.w3.org/2000/svg">
<path d="M17 10.8182C13.5845 10.8182 10.8182 13.5845 10.8182 17C10.8182 20.4155 13.5845 23.1818 17 23.1818C20.4155 23.1818 23.1818 20.4155 23.1818 17C23.1818 13.5845 20.4155 10.8182 17 10.8182ZM30.8164 15.4545C30.1055 9.01 24.99 3.89455 18.5455 3.18364V1.54545C18.5455 0.695454 17.85 0 17 0C16.15 0 15.4545 0.695454 15.4545 1.54545V3.18364C9.01 3.89455 3.89455 9.01 3.18364 15.4545H1.54545C0.695454 15.4545 0 16.15 0 17C0 17.85 0.695454 18.5455 1.54545 18.5455H3.18364C3.89455 24.99 9.01 30.1055 15.4545 30.8164V32.4545C15.4545 33.3045 16.15 34 17 34C17.85 34 18.5455 33.3045 18.5455 32.4545V30.8164C24.99 30.1055 30.1055 24.99 30.8164 18.5455H32.4545C33.3045 18.5455 34 17.85 34 17C34 16.15 33.3045 15.4545 32.4545 15.4545H30.8164ZM17 27.8182C11.0191 27.8182 6.18182 22.9809 6.18182 17C6.18182 11.0191 11.0191 6.18182 17 6.18182C22.9809 6.18182 27.8182 11.0191 27.8182 17C27.8182 22.9809 22.9809 27.8182 17 27.8182Z" fill="#919191"/>
</svg>
