<svg width="43" height="53" viewBox="0 0 43 53" fill="none" xmlns="http://www.w3.org/2000/svg">
<path d="M21.5 0C10.2125 0 0 8.65375 0 22.0375C0 30.5837 6.58438 40.635 19.7262 52.2181C20.7475 53.105 22.2794 53.105 23.3006 52.2181C36.4156 40.635 43 30.5837 43 22.0375C43 8.65375 32.7875 0 21.5 0ZM21.5 26.875C18.5438 26.875 16.125 24.4562 16.125 21.5C16.125 18.5438 18.5438 16.125 21.5 16.125C24.4562 16.125 26.875 18.5438 26.875 21.5C26.875 24.4562 24.4562 26.875 21.5 26.875Z" fill="black"/>
</svg>
