<svg width="18" height="18" viewBox="0 0 18 18" fill="none" xmlns="http://www.w3.org/2000/svg">
<path d="M11.35 17.6641L6 15.7891L1.35 17.5891C1.01667 17.7224 0.708333 17.6847 0.425 17.4761C0.141667 17.2681 0 16.9891 0 16.6391V2.63905C0 2.42238 0.0626666 2.23072 0.188 2.06405C0.312667 1.89738 0.483333 1.77238 0.7 1.68905L5.35 0.114051C5.56667 0.0473843 5.78333 0.00971776 6 0.0010511C6.21667 -0.0069489 6.43333 0.0307177 6.65 0.114051L12 1.98905L16.65 0.189051C16.9833 0.0557177 17.2917 0.093051 17.575 0.301051C17.8583 0.509718 18 0.789051 18 1.13905V15.1391C18 15.3557 17.9373 15.5474 17.812 15.7141C17.6873 15.8807 17.5167 16.0057 17.3 16.0891L12.65 17.6641C12.4333 17.7307 12.2167 17.7681 12 17.7761C11.7833 17.7847 11.5667 17.7474 11.35 17.6641ZM11 15.4391V3.73905L7 2.33905V14.0391L11 15.4391ZM13 15.4391L16 14.4391V2.58905L13 3.73905V15.4391ZM2 15.1891L5 14.0391V2.33905L2 3.33905V15.1891Z" fill="white"/>
</svg>
