<svg width="26" height="21" viewBox="0 0 26 21" fill="currentColor" xmlns="http://www.w3.org/2000/svg">
<path fill-rule="evenodd" clip-rule="evenodd" d="M18.5191 11.9781C20.1382 13.1981 21.2727 14.8512 21.2727 17.0552V20.991H24.8182C25.4682 20.991 26 20.4006 26 19.6791V17.0552C26 14.1952 21.7809 12.5028 18.5191 11.9781Z" fill="#00317B"/>
<path d="M9.45454 10.4956C12.0653 10.4956 14.1818 8.14612 14.1818 5.24789C14.1818 2.34966 12.0653 0.000183105 9.45454 0.000183105C6.84374 0.000183105 4.72726 2.34966 4.72726 5.24789C4.72726 8.14612 6.84374 10.4956 9.45454 10.4956Z" fill="#00317B"/>
<path fill-rule="evenodd" clip-rule="evenodd" d="M16.5455 10.4956C19.1573 10.4956 21.2728 8.14725 21.2728 5.24789C21.2728 2.34853 19.1573 0.000183105 16.5455 0.000183105C15.99 0.000183105 15.47 0.131375 14.9737 0.315045C15.9546 1.66633 16.5455 3.38495 16.5455 5.24789C16.5455 7.11083 15.9546 8.82945 14.9737 10.1807C15.47 10.3644 15.99 10.4956 16.5455 10.4956Z" fill="#00317B"/>
<path fill-rule="evenodd" clip-rule="evenodd" d="M9.45455 11.8075C6.29909 11.8075 0 13.5655 0 17.0552V19.6791C0 20.4007 0.531818 20.991 1.18182 20.991H17.7273C18.3773 20.991 18.9091 20.4007 18.9091 19.6791V17.0552C18.9091 13.5655 12.61 11.8075 9.45455 11.8075Z" fill="#00317B"/>
</svg>
