<svg width="59" height="59" viewBox="0 0 59 59" fill="none" xmlns="http://www.w3.org/2000/svg">
<path d="M35.2525 58.6512C34.515 59.0442 33.7657 59.1051 33.0046 58.8339C32.2415 58.5648 31.6633 58.0617 31.27 57.3249L26.845 48.483C26.4517 47.7462 26.3907 46.9976 26.6621 46.2372C26.9315 45.4748 27.435 44.8972 28.1725 44.5042C28.91 44.1112 29.6593 44.0503 30.4204 44.3214C31.1835 44.5906 31.7617 45.0936 32.155 45.8305L36.58 54.6724C36.9733 55.4092 37.0353 56.1578 36.7659 56.9182C36.4944 57.6806 35.99 58.2582 35.2525 58.6512ZM52.9525 58.6512C52.215 59.0442 51.4657 59.1051 50.7046 58.8339C49.9415 58.5648 49.3633 58.0617 48.97 57.3249L44.545 48.483C44.1517 47.7462 44.0907 46.9976 44.3621 46.2372C44.6315 45.4748 45.135 44.8972 45.8725 44.5042C46.61 44.1112 47.3593 44.0503 48.1204 44.3214C48.8835 44.5906 49.4617 45.0936 49.855 45.8305L54.28 54.6724C54.6733 55.4092 54.7353 56.1578 54.4659 56.9182C54.1945 57.6806 53.69 58.2582 52.9525 58.6512ZM17.5525 58.6512C16.815 59.0442 16.0657 59.1051 15.3046 58.8339C14.5415 58.5648 13.9633 58.0617 13.57 57.3249L9.145 48.483C8.75167 47.7462 8.6907 46.9976 8.9621 46.2372C9.23153 45.4748 9.735 44.8972 10.4725 44.5042C11.21 44.1112 11.9593 44.0503 12.7204 44.3214C13.4835 44.5906 14.0617 45.0936 14.455 45.8305L18.88 54.6724C19.2733 55.4092 19.3353 56.1578 19.0659 56.9182C18.7945 57.6806 18.29 58.2582 17.5525 58.6512ZM16.225 41.2622C11.7508 41.2622 7.92862 39.6775 4.75835 36.5082C1.58612 33.3408 0 29.5221 0 25.052C0 20.9749 1.35208 17.4136 4.05625 14.3681C6.76042 11.3225 10.1038 9.52959 14.0863 8.98926C15.6596 6.18932 17.8111 3.99064 20.5409 2.39321C23.2686 0.797735 26.255 0 29.5 0C33.925 0 37.7718 1.41274 41.0404 4.23821C44.311 7.06172 46.2904 10.5857 46.9787 14.8102C50.3713 15.1049 53.2229 16.5049 55.5338 19.0101C57.8446 21.5153 59 24.5117 59 27.9993C59 31.6834 57.7099 34.8154 55.1296 37.3953C52.5474 39.9732 49.4125 41.2622 45.725 41.2622H16.225Z" fill="black"/>
</svg>
