<svg width="28" height="26" viewBox="0 0 28 26" fill="none" xmlns="http://www.w3.org/2000/svg">
<path d="M13.514 0C6.04074 0 0 5.811 0 13C0 20.189 6.04074 26 13.514 26C20.9872 26 27.0279 20.189 27.0279 13C27.0279 5.811 20.9872 0 13.514 0ZM13.514 23.4C7.5543 23.4 2.70279 18.733 2.70279 13C2.70279 7.267 7.5543 2.6 13.514 2.6C19.4736 2.6 24.3251 7.267 24.3251 13C24.3251 18.733 19.4736 23.4 13.514 23.4ZM18.3655 6.5L13.514 11.167L8.66244 6.5L6.75698 8.333L11.6085 13L6.75698 17.667L8.66244 19.5L13.514 14.833L18.3655 19.5L20.2709 17.667L15.4194 13L20.2709 8.333L18.3655 6.5Z" fill="#919191"/>
</svg>
