<svg xmlns="http://www.w3.org/2000/svg" width="13" height="13" viewBox="0 0 13 13" fill="none">
  <path d="M7.75058 13H5.24942C5.08267 13 4.93816 12.9458 4.81588 12.8375C4.6936 12.7292 4.62135 12.5938 4.59911 12.4312L4.39902 10.92C4.25451 10.8658 4.11844 10.8008 3.99083 10.725C3.86277 10.6492 3.7376 10.5679 3.61532 10.4812L2.16465 11.0662C2.00902 11.1204 1.85339 11.1258 1.69776 11.0825C1.54213 11.0392 1.41985 10.9471 1.33092 10.8062L0.0970149 8.71C0.00808457 8.56917 -0.0197062 8.4175 0.0136427 8.255C0.0469916 8.0925 0.130364 7.9625 0.263759 7.865L1.51434 6.93875C1.50323 6.86292 1.49767 6.78968 1.49767 6.71905V6.2803C1.49767 6.2101 1.50323 6.13708 1.51434 6.06125L0.263759 5.135C0.130364 5.0375 0.0469916 4.9075 0.0136427 4.745C-0.0197062 4.5825 0.00808457 4.43083 0.0970149 4.29L1.33092 2.19375C1.40874 2.04208 1.52813 1.94718 1.68909 1.90905C1.8505 1.87135 2.00902 1.87958 2.16465 1.93375L3.61532 2.51875C3.7376 2.43208 3.86544 2.35083 3.99883 2.275C4.13223 2.19917 4.26562 2.13417 4.39902 2.08L4.59911 0.56875C4.62135 0.40625 4.6936 0.270833 4.81588 0.1625C4.93816 0.0541667 5.08267 0 5.24942 0H7.75058C7.91733 0 8.06184 0.0541667 8.18412 0.1625C8.3064 0.270833 8.37865 0.40625 8.40089 0.56875L8.60098 2.08C8.74549 2.13417 8.88178 2.19917 9.00984 2.275C9.13745 2.35083 9.2624 2.43208 9.38468 2.51875L10.8354 1.93375C10.991 1.87958 11.1466 1.87417 11.3022 1.9175C11.4579 1.96083 11.5801 2.05292 11.6691 2.19375L12.903 4.29C12.9919 4.43083 13.0197 4.5825 12.9864 4.745C12.953 4.9075 12.8696 5.0375 12.7362 5.135L11.4857 6.06125C11.4968 6.13708 11.5023 6.2101 11.5023 6.2803V6.71905C11.5023 6.78968 11.4912 6.86292 11.469 6.93875L12.7196 7.865C12.853 7.9625 12.9363 8.0925 12.9697 8.255C13.003 8.4175 12.9752 8.56917 12.8863 8.71L11.6524 10.79C11.5635 10.9308 11.4385 11.0257 11.2776 11.0747C11.1162 11.1232 10.9576 11.1204 10.802 11.0662L9.38468 10.4812C9.2624 10.5679 9.13456 10.6492 9.00117 10.725C8.86777 10.8008 8.73437 10.8658 8.60098 10.92L8.40089 12.4312C8.37865 12.5938 8.3064 12.7292 8.18412 12.8375C8.06184 12.9458 7.91733 13 7.75058 13ZM6.53335 8.775C7.17809 8.775 7.72835 8.55292 8.18412 8.10875C8.63989 7.66458 8.86777 7.12833 8.86777 6.5C8.86777 5.87167 8.63989 5.33542 8.18412 4.89125C7.72835 4.44708 7.17809 4.225 6.53335 4.225C5.87749 4.225 5.32434 4.44708 4.87391 4.89125C4.42392 5.33542 4.19893 5.87167 4.19893 6.5C4.19893 7.12833 4.42392 7.66458 4.87391 8.10875C5.32434 8.55292 5.87749 8.775 6.53335 8.775ZM6.53335 7.475C6.25544 7.475 6.01933 7.3801 5.82502 7.1903C5.63026 7.00093 5.53288 6.77083 5.53288 6.5C5.53288 6.22917 5.63026 5.99907 5.82502 5.8097C6.01933 5.6199 6.25544 5.525 6.53335 5.525C6.81126 5.525 7.04759 5.6199 7.24235 5.8097C7.43666 5.99907 7.53382 6.22917 7.53382 6.5C7.53382 6.77083 7.43666 7.00093 7.24235 7.1903C7.04759 7.3801 6.81126 7.475 6.53335 7.475ZM5.83302 11.7H7.1503L7.38375 9.9775C7.72835 9.89083 8.04805 9.76343 8.34286 9.5953C8.63722 9.4276 8.90668 9.22458 9.15124 8.98625L10.802 9.6525L11.4523 8.5475L10.0183 7.49125C10.0739 7.33958 10.1128 7.17968 10.135 7.01155C10.1573 6.84385 10.1684 6.67333 10.1684 6.5C10.1684 6.32667 10.1573 6.15593 10.135 5.9878C10.1128 5.8201 10.0739 5.66042 10.0183 5.50875L11.4523 4.4525L10.802 3.3475L9.15124 4.03C8.90668 3.78083 8.63722 3.57218 8.34286 3.40405C8.04805 3.23635 7.72835 3.10917 7.38375 3.0225L7.16698 1.3H5.8497L5.61625 3.0225C5.27165 3.10917 4.95217 3.23635 4.65781 3.40405C4.363 3.57218 4.09332 3.77542 3.84876 4.01375L2.19799 3.3475L1.54769 4.4525L2.98169 5.4925C2.92611 5.655 2.8872 5.8175 2.86497 5.98C2.84274 6.1425 2.83162 6.31583 2.83162 6.5C2.83162 6.67333 2.84274 6.84125 2.86497 7.00375C2.8872 7.16625 2.92611 7.32875 2.98169 7.49125L1.54769 8.5475L2.19799 9.6525L3.84876 8.97C4.09332 9.21917 4.363 9.4276 4.65781 9.5953C4.95217 9.76343 5.27165 9.89083 5.61625 9.9775L5.83302 11.7Z" fill="#919191"/>
</svg>