<svg width="31" height="35" viewBox="0 0 31 35" fill="currentColor" xmlns="http://www.w3.org/2000/svg">
<path d="M20.4729 6.67606C21.1225 6.16184 21.2321 5.21844 20.7179 4.56894C20.2037 3.91942 19.2603 3.80972 18.6109 4.32394L20.4729 6.67606ZM14.569 7.52394C13.9194 8.03816 13.8098 8.98156 14.324 9.63106C14.8382 10.2806 15.7816 10.3903 16.431 9.87606L14.569 7.52394ZM14.569 9.87606C15.2184 10.3903 16.1618 10.2806 16.676 9.63106C17.1902 8.98156 17.0806 8.03816 16.431 7.52394L14.569 9.87606ZM12.389 4.32394C11.7397 3.80972 10.7962 3.91942 10.282 4.56894C9.76781 5.21844 9.87751 6.16184 10.527 6.67606L12.389 4.32394ZM14 8.7C14 9.52842 14.6716 10.2 15.5 10.2C16.3284 10.2 17 9.52842 17 8.7H14ZM17 1.5C17 0.67158 16.3284 0 15.5 0C14.6716 0 14 0.67158 14 1.5H17ZM17 8.7C17 7.87158 16.3284 7.2 15.5 7.2C14.6716 7.2 14 7.87158 14 8.7H17ZM14 26.3C14 27.1284 14.6716 27.8 15.5 27.8C16.3284 27.8 17 27.1284 17 26.3H14ZM10.527 28.324C9.87751 28.8382 9.76781 29.7816 10.282 30.431C10.7962 31.0806 11.7397 31.1902 12.389 30.676L10.527 28.324ZM16.431 27.476C17.0806 26.9618 17.1902 26.0184 16.676 25.369C16.1618 24.7194 15.2184 24.6098 14.569 25.124L16.431 27.476ZM16.431 25.124C15.7816 24.6098 14.8382 24.7194 14.324 25.369C13.8098 26.0184 13.9194 26.9618 14.569 27.476L16.431 25.124ZM18.6109 30.676C19.2603 31.1902 20.2037 31.0806 20.7179 30.431C21.2321 29.7816 21.1225 28.8382 20.4729 28.324L18.6109 30.676ZM17 26.3C17 25.4716 16.3284 24.8 15.5 24.8C14.6716 24.8 14 25.4716 14 26.3H17ZM14 33.5C14 34.3284 14.6716 35 15.5 35C16.3284 35 17 34.3284 17 33.5H14ZM3.52124 18.637C2.74859 18.3382 1.88 18.7224 1.58121 19.495C1.28239 20.2676 1.66653 21.1362 2.43917 21.435L3.52124 18.637ZM7.25909 23.299C8.03174 23.5978 8.90033 23.2136 9.19912 22.441C9.49794 21.6684 9.1138 20.7998 8.34116 20.501L7.25909 23.299ZM9.28262 22.1284C9.40874 21.3096 8.84723 20.5436 8.02846 20.4174C7.20971 20.2914 6.44375 20.8528 6.31763 21.6716L9.28262 22.1284ZM5.53764 26.7356C5.41152 27.5544 5.97304 28.3204 6.7918 28.4466C7.61055 28.5726 8.37652 28.0112 8.50263 27.1924L5.53764 26.7356ZM8.54431 23.2024C9.26358 22.7914 9.51348 21.875 9.10246 21.1558C8.69145 20.4366 7.77519 20.1866 7.05594 20.5976L8.54431 23.2024ZM0.756042 24.1976C0.0367734 24.6086 -0.213122 25.525 0.197891 26.2442C0.608904 26.9634 1.52517 27.2134 2.24442 26.8024L0.756042 24.1976ZM7.05594 20.5976C6.33667 21.0086 6.08677 21.925 6.49779 22.6442C6.9088 23.3634 7.82507 23.6134 8.54431 23.2024L7.05594 20.5976ZM23.9441 14.4024C24.6632 13.9914 24.9132 13.0751 24.5022 12.3558C24.0913 11.6365 23.1749 11.3866 22.4557 11.7976L23.9441 14.4024ZM27.4788 16.363C28.2514 16.6618 29.12 16.2776 29.4188 15.505C29.7176 14.7324 29.3334 13.8638 28.5608 13.565L27.4788 16.363ZM23.7409 11.701C22.9683 11.4022 22.0997 11.7863 21.8009 12.559C21.5021 13.3316 21.8863 14.2002 22.6589 14.499L23.7409 11.701ZM21.7173 12.8716C21.5913 13.6904 22.1527 14.4564 22.9715 14.5826C23.7903 14.7086 24.5562 14.1472 24.6824 13.3284L21.7173 12.8716ZM25.4624 8.26434C25.5884 7.44558 25.027 6.6796 24.2083 6.55348C23.3895 6.42736 22.6235 6.98888 22.4973 7.80766L25.4624 8.26434ZM22.4557 11.7976C21.7365 12.2086 21.4865 13.1249 21.8975 13.8442C22.3085 14.5634 23.2249 14.8134 23.9441 14.4024L22.4557 11.7976ZM30.244 10.8024C30.9631 10.3913 31.2131 9.47506 30.8021 8.7558C30.3912 8.03652 29.4748 7.78662 28.7556 8.19764L30.244 10.8024ZM2.43917 13.565C1.66653 13.8638 1.28239 14.7324 1.58121 15.505C1.88 16.2776 2.74859 16.6618 3.52124 16.363L2.43917 13.565ZM8.34116 14.499C9.1138 14.2002 9.49794 13.3316 9.19912 12.559C8.90033 11.7863 8.03174 11.4022 7.25909 11.701L8.34116 14.499ZM6.31763 13.3284C6.44375 14.1472 7.20971 14.7086 8.02846 14.5826C8.84723 14.4564 9.40874 13.6904 9.28262 12.8716L6.31763 13.3284ZM8.50263 7.80766C8.37652 6.98888 7.61055 6.42736 6.7918 6.55348C5.97304 6.6796 5.41152 7.44558 5.53764 8.26434L8.50263 7.80766ZM7.05594 14.4024C7.77519 14.8134 8.69145 14.5634 9.10246 13.8442C9.51348 13.1249 9.26358 12.2086 8.54431 11.7976L7.05594 14.4024ZM2.24442 8.19764C1.52517 7.78662 0.608904 8.03652 0.197891 8.7558C-0.213122 9.47506 0.0367734 10.3913 0.756042 10.8024L2.24442 8.19764ZM8.54431 11.7976C7.82507 11.3866 6.9088 11.6365 6.49779 12.3558C6.08677 13.0751 6.33667 13.9914 7.05594 14.4024L8.54431 11.7976ZM22.4557 23.2024C23.1749 23.6134 24.0913 23.3634 24.5022 22.6442C24.9132 21.925 24.6632 21.0086 23.9441 20.5976L22.4557 23.2024ZM28.5608 21.435C29.3334 21.1362 29.7176 20.2676 29.4188 19.495C29.12 18.7224 28.2514 18.3382 27.4788 18.637L28.5608 21.435ZM22.6589 20.501C21.8863 20.7998 21.5021 21.6684 21.8009 22.441C22.0997 23.2136 22.9683 23.5978 23.7409 23.299L22.6589 20.501ZM24.6824 21.6716C24.5562 20.8528 23.7903 20.2914 22.9715 20.4174C22.1527 20.5436 21.5913 21.3096 21.7173 22.1284L24.6824 21.6716ZM22.4973 27.1924C22.6235 28.0112 23.3895 28.5726 24.2083 28.4466C25.027 28.3204 25.5884 27.5544 25.4624 26.7356L22.4973 27.1924ZM23.9441 20.5976C23.2249 20.1866 22.3085 20.4366 21.8975 21.1558C21.4865 21.875 21.7365 22.7914 22.4557 23.2024L23.9441 20.5976ZM28.7556 26.8024C29.4748 27.2134 30.3912 26.9634 30.8021 26.2442C31.2131 25.525 30.9631 24.6086 30.244 24.1976L28.7556 26.8024ZM18.6109 4.32394L14.569 7.52394L16.431 9.87606L20.4729 6.67606L18.6109 4.32394ZM16.431 7.52394L12.389 4.32394L10.527 6.67606L14.569 9.87606L16.431 7.52394ZM17 8.7V1.5H14V8.7H17ZM14 8.7V26.3H17V8.7H14ZM12.389 30.676L16.431 27.476L14.569 25.124L10.527 28.324L12.389 30.676ZM14.569 27.476L18.6109 30.676L20.4729 28.324L16.431 25.124L14.569 27.476ZM14 26.3V33.5H17V26.3H14ZM2.43917 21.435L7.25909 23.299L8.34116 20.501L3.52124 18.637L2.43917 21.435ZM6.31763 21.6716L5.53764 26.7356L8.50263 27.1924L9.28262 22.1284L6.31763 21.6716ZM7.05594 20.5976L0.756042 24.1976L2.24442 26.8024L8.54431 23.2024L7.05594 20.5976ZM8.54431 23.2024L23.9441 14.4024L22.4557 11.7976L7.05594 20.5976L8.54431 23.2024ZM28.5608 13.565L23.7409 11.701L22.6589 14.499L27.4788 16.363L28.5608 13.565ZM24.6824 13.3284L25.4624 8.26434L22.4973 7.80766L21.7173 12.8716L24.6824 13.3284ZM23.9441 14.4024L30.244 10.8024L28.7556 8.19764L22.4557 11.7976L23.9441 14.4024ZM3.52124 16.363L8.34116 14.499L7.25909 11.701L2.43917 13.565L3.52124 16.363ZM9.28262 12.8716L8.50263 7.80766L5.53764 8.26434L6.31763 13.3284L9.28262 12.8716ZM8.54431 11.7976L2.24442 8.19764L0.756042 10.8024L7.05594 14.4024L8.54431 11.7976ZM7.05594 14.4024L22.4557 23.2024L23.9441 20.5976L8.54431 11.7976L7.05594 14.4024ZM27.4788 18.637L22.6589 20.501L23.7409 23.299L28.5608 21.435L27.4788 18.637ZM21.7173 22.1284L22.4973 27.1924L25.4624 26.7356L24.6824 21.6716L21.7173 22.1284ZM22.4557 23.2024L28.7556 26.8024L30.244 24.1976L23.9441 20.5976L22.4557 23.2024Z" fill="currentColor"/>
</svg>
