<svg width="18" height="18" viewBox="0 0 29 29" fill="none" xmlns="http://www.w3.org/2000/svg">
<path d="M14.5 21.1667C14.8778 21.1667 15.1944 21.0389 15.45 20.7833C15.7056 20.5278 15.8333 20.2111 15.8333 19.8333C15.8333 19.4556 15.7056 19.1389 15.45 18.8833C15.1944 18.6278 14.8778 18.5 14.5 18.5C14.1222 18.5 13.8056 18.6278 13.55 18.8833C13.2944 19.1389 13.1667 19.4556 13.1667 19.8333C13.1667 20.2111 13.2944 20.5278 13.55 20.7833C13.8056 21.0389 14.1222 21.1667 14.5 21.1667ZM14.5 15.8333C14.8778 15.8333 15.1944 15.7056 15.45 15.45C15.7056 15.1944 15.8333 14.8778 15.8333 14.5V9.16667C15.8333 8.78889 15.7056 8.47222 15.45 8.21667C15.1944 7.96111 14.8778 7.83333 14.5 7.83333C14.1222 7.83333 13.8056 7.96111 13.55 8.21667C13.2944 8.47222 13.1667 8.78889 13.1667 9.16667V14.5C13.1667 14.8778 13.2944 15.1944 13.55 15.45C13.8056 15.7056 14.1222 15.8333 14.5 15.8333ZM13.5667 28.6333L10.0333 25.1667H5.16667C4.78889 25.1667 4.47222 25.0389 4.21667 24.7833C3.96111 24.5278 3.83333 24.2111 3.83333 23.8333V18.9667L0.366667 15.4333C0.122222 15.1667 0 14.8556 0 14.5C0 14.1444 0.122222 13.8333 0.366667 13.5667L3.83333 10.0333V5.16667C3.83333 4.78889 3.96111 4.47222 4.21667 4.21667C4.47222 3.96111 4.78889 3.83333 5.16667 3.83333H10.0333L13.5667 0.366667C13.8333 0.122222 14.1444 0 14.5 0C14.8556 0 15.1667 0.122222 15.4333 0.366667L18.9667 3.83333H23.8333C24.2111 3.83333 24.5278 3.96111 24.7833 4.21667C25.0389 4.47222 25.1667 4.78889 25.1667 5.16667V10.0333L28.6333 13.5667C28.8778 13.8333 29 14.1444 29 14.5C29 14.8556 28.8778 15.1667 28.6333 15.4333L25.1667 18.9667V23.8333C25.1667 24.2111 25.0389 24.5278 24.7833 24.7833C24.5278 25.0389 24.2111 25.1667 23.8333 25.1667H18.9667L15.4333 28.6333C15.1667 28.8778 14.8556 29 14.5 29C14.1444 29 13.8333 28.8778 13.5667 28.6333ZM14.5 25.8333L17.8333 22.5H22.5V17.8333L25.8333 14.5L22.5 11.1667V6.5H17.8333L14.5 3.16667L11.1667 6.5H6.5V11.1667L3.16667 14.5L6.5 17.8333V22.5H11.1667L14.5 25.8333Z" fill="currentColor"/>
</svg>
