<svg width="36" height="35" viewBox="0 0 36 35" fill="currentColor" xmlns="http://www.w3.org/2000/svg">
<path d="M33.3733 23.1059L31.0907 20.5509C30.3936 19.7706 29.0982 20.2669 29.0982 21.3113V24.6271C29.0982 24.8369 28.9276 25.0076 28.7178 25.0076C28.508 25.0076 28.3374 24.8369 28.3374 24.6271V22.8247C28.3374 21.6356 28.0625 20.4637 27.5492 19.4022H27.6686C28.6814 19.4022 29.1942 18.1724 28.4756 17.4539L22.4347 11.413H24.9134C25.9262 11.413 26.4389 10.1832 25.7204 9.46469L16.5899 0.334243C16.1443 -0.111414 15.4216 -0.111414 14.9759 0.334243L5.84543 9.46469C5.12901 10.1811 5.63665 11.413 6.65242 11.413H9.13106L3.09039 17.4537C2.37397 18.1702 2.88162 19.4021 3.89739 19.4021H6.37603L0.33522 25.4429C-0.381199 26.1594 0.126445 27.3913 1.14221 27.3913H12.3591V33.8587C12.3591 34.489 12.8701 35 13.5004 35H18.0657C18.696 35 19.207 34.489 19.207 33.8587C19.207 33.1303 19.207 28.2359 19.207 27.3913H19.2149C19.0184 31.2481 22.6118 35 27.1961 35C31.6345 35 35.1852 31.4725 35.1852 27.6707C35.1853 25.163 33.4477 23.1891 33.3733 23.1059ZM16.9243 32.7174H14.6418V27.3913H16.9244V32.7174H16.9243ZM21.0191 23.1058C20.9734 23.157 20.2915 23.932 19.7776 25.1085C19.6887 25.1086 4.22368 25.1086 3.89766 25.1086L9.93847 19.0677C10.6549 18.3513 10.1472 17.1194 9.13147 17.1194H6.65284L12.6936 11.0785C13.4101 10.3621 12.9024 9.13022 11.8866 9.13022H9.40801L15.7831 2.75509L22.1583 9.13022H19.6796C18.6668 9.13022 18.1541 10.36 18.8726 11.0785L23.2845 15.4904C22.9139 15.3485 22.5325 15.2329 22.1421 15.1485L22.1108 15.1417C21.6275 15.0376 21.1323 15.2561 20.8837 15.6833C20.6351 16.1105 20.6898 16.6492 21.0191 17.0178C21.0314 17.0315 22.2506 18.4414 22.2506 20.0617C22.2506 21.6849 21.0284 23.0953 21.0191 23.1058ZM27.1961 32.7174C23.9962 32.7174 21.4896 30.1894 21.4896 27.6707C21.4896 26.5871 22.0782 25.362 22.7212 24.6267C22.7951 24.5439 24.533 22.5697 24.533 20.062C24.533 19.6528 24.4868 19.2579 24.409 18.8831C25.431 19.9044 26.0547 21.3114 26.0547 22.8248V24.6272C26.0547 26.0956 27.2494 27.2902 28.7177 27.2902C30.1862 27.2902 31.3807 26.0956 31.3807 24.6272V24.302L31.671 24.6269C31.6833 24.6406 32.9025 26.0506 32.9025 27.6708C32.9026 30.187 30.3983 32.7174 27.1961 32.7174Z" fill="currentColor"/>
</svg>
